<svg xmlns="http://www.w3.org/2000/svg" xmlns:xlink="http://www.w3.org/1999/xlink" width="500" zoomAndPan="magnify" viewBox="0 0 375 374.999991" height="500" preserveAspectRatio="xMidYMid meet" version="1.0"><defs><g/><clipPath id="f7f40f31c2"><path d="M 100 132.414062 L 151.628906 132.414062 L 151.628906 199.164062 L 100 199.164062 Z M 100 132.414062 " clip-rule="nonzero"/></clipPath><clipPath id="dcfe93ad05"><path d="M 210 150 L 261 150 L 261 187 L 210 187 Z M 210 150 " clip-rule="nonzero"/></clipPath><clipPath id="5f260a73c1"><path d="M 210.148438 154.480469 L 256.703125 142.789062 L 268.03125 187.886719 L 221.476562 199.582031 Z M 210.148438 154.480469 " clip-rule="nonzero"/></clipPath><clipPath id="108bad22a1"><path d="M 210.148438 154.480469 L 256.703125 142.789062 L 268.03125 187.886719 L 221.476562 199.582031 Z M 210.148438 154.480469 " clip-rule="nonzero"/></clipPath><clipPath id="a763720abc"><path d="M 232 187 L 241 187 L 241 196 L 232 196 Z M 232 187 " clip-rule="nonzero"/></clipPath><clipPath id="cd229058cf"><path d="M 210.148438 154.480469 L 256.703125 142.789062 L 268.03125 187.886719 L 221.476562 199.582031 Z M 210.148438 154.480469 " clip-rule="nonzero"/></clipPath><clipPath id="9e6224e08e"><path d="M 210.148438 154.480469 L 256.703125 142.789062 L 268.03125 187.886719 L 221.476562 199.582031 Z M 210.148438 154.480469 " clip-rule="nonzero"/></clipPath><clipPath id="2ff076b641"><path d="M 254 182 L 263 182 L 263 191 L 254 191 Z M 254 182 " clip-rule="nonzero"/></clipPath><clipPath id="bfd1e11130"><path d="M 210.148438 154.480469 L 256.703125 142.789062 L 268.03125 187.886719 L 221.476562 199.582031 Z M 210.148438 154.480469 " clip-rule="nonzero"/></clipPath><clipPath id="53a432e260"><path d="M 210.148438 154.480469 L 256.703125 142.789062 L 268.03125 187.886719 L 221.476562 199.582031 Z M 210.148438 154.480469 " clip-rule="nonzero"/></clipPath></defs><g clip-path="url(#f7f40f31c2)"><path fill="#ff914d" d="M 125.960938 132.46875 C 120.042969 132.46875 115.226562 136.625 115.226562 141.703125 L 115.226562 148.859375 L 107.644531 148.859375 C 107.359375 148.855469 107.109375 148.945312 106.890625 149.125 C 106.671875 149.308594 106.539062 149.539062 106.492188 149.816406 L 100.074219 195.167969 C 100.035156 195.429688 100.023438 195.695312 100.042969 195.960938 C 100.058594 196.230469 100.105469 196.488281 100.179688 196.746094 C 100.257812 197.003906 100.359375 197.246094 100.484375 197.480469 C 100.613281 197.714844 100.765625 197.933594 100.9375 198.136719 C 101.113281 198.339844 101.308594 198.519531 101.523438 198.679688 C 101.734375 198.839844 101.964844 198.972656 102.207031 199.082031 C 102.449219 199.195312 102.703125 199.277344 102.964844 199.332031 C 103.222656 199.386719 103.488281 199.414062 103.753906 199.414062 L 148.167969 199.414062 C 148.4375 199.414062 148.699219 199.386719 148.960938 199.332031 C 149.222656 199.277344 149.472656 199.195312 149.71875 199.082031 C 149.960938 198.972656 150.1875 198.839844 150.402344 198.679688 C 150.617188 198.519531 150.8125 198.339844 150.984375 198.136719 C 151.160156 197.933594 151.3125 197.714844 151.4375 197.480469 C 151.566406 197.246094 151.667969 197.003906 151.742188 196.746094 C 151.816406 196.488281 151.863281 196.230469 151.882812 195.960938 C 151.902344 195.695312 151.890625 195.429688 151.851562 195.167969 L 145.386719 149.785156 C 145.339844 149.503906 145.207031 149.273438 144.988281 149.089844 C 144.769531 148.910156 144.515625 148.820312 144.234375 148.824219 L 136.695312 148.824219 L 136.695312 141.703125 C 136.695312 136.625 131.882812 132.46875 125.960938 132.46875 Z M 117.46875 148.859375 L 117.46875 141.703125 C 117.46875 137.824219 121.277344 134.675781 125.960938 134.675781 C 130.648438 134.675781 134.457031 137.847656 134.457031 141.703125 L 134.457031 148.859375 Z M 117.46875 148.859375 " fill-opacity="1" fill-rule="nonzero"/></g><g clip-path="url(#dcfe93ad05)"><g clip-path="url(#5f260a73c1)"><g clip-path="url(#108bad22a1)"><path fill="#7ed957" d="M 257.929688 150.390625 C 257.449219 150.039062 256.835938 149.917969 256.257812 150.0625 L 223.171875 158.371094 L 220.234375 153.421875 C 219.78125 152.660156 218.886719 152.289062 218.027344 152.503906 L 212.109375 153.988281 C 211.035156 154.257812 210.386719 155.34375 210.65625 156.417969 C 210.925781 157.488281 212.011719 158.136719 213.082031 157.867188 L 217.554688 156.746094 L 230.917969 179.269531 C 230.492188 180.90625 230.265625 183.15625 231.542969 184.667969 C 232.675781 186.011719 234.5625 186.363281 237.148438 185.714844 C 237.195312 185.703125 237.238281 185.6875 237.285156 185.671875 C 237.449219 185.613281 253.769531 179.886719 259.613281 178.765625 C 260.464844 178.597656 261.03125 177.773438 260.867188 176.917969 C 260.703125 176.0625 259.875 175.5 259.019531 175.664062 C 253.085938 176.804688 237.652344 182.195312 236.308594 182.667969 C 234.890625 183.015625 234.15625 182.867188 233.957031 182.632812 C 233.738281 182.375 233.699219 181.785156 233.785156 181.089844 C 233.824219 181.074219 233.867188 181.066406 233.90625 181.050781 L 258.449219 171.628906 C 259.257812 171.320312 259.777344 170.519531 259.726562 169.652344 L 258.738281 151.890625 C 258.707031 151.292969 258.410156 150.746094 257.929688 150.390625 Z M 246.242188 163.328125 L 238.28125 165.324219 L 236.714844 159.09375 L 244.675781 157.09375 Z M 229.730469 169.425781 L 236.90625 167.625 L 238.738281 174.914062 L 234.050781 176.710938 Z M 238.742188 167.164062 L 246.703125 165.164062 L 248.238281 171.265625 L 240.519531 174.230469 Z M 255.246094 161.066406 L 248.078125 162.863281 L 246.515625 156.632812 L 254.882812 154.53125 Z M 234.878906 159.554688 L 236.445312 165.785156 L 228.71875 167.726562 L 225.300781 161.960938 Z M 250.019531 170.582031 L 248.539062 164.703125 L 255.351562 162.992188 L 255.65625 168.417969 Z M 250.019531 170.582031 " fill-opacity="1" fill-rule="nonzero"/></g></g></g><g clip-path="url(#a763720abc)"><g clip-path="url(#cd229058cf)"><g clip-path="url(#9e6224e08e)"><path fill="#7ed957" d="M 239.992188 190.707031 C 240.054688 190.960938 240.09375 191.21875 240.105469 191.480469 C 240.121094 191.742188 240.105469 192.003906 240.070312 192.261719 C 240.03125 192.523438 239.96875 192.777344 239.878906 193.023438 C 239.789062 193.269531 239.679688 193.507812 239.542969 193.730469 C 239.410156 193.957031 239.253906 194.167969 239.078125 194.359375 C 238.902344 194.554688 238.710938 194.730469 238.5 194.886719 C 238.289062 195.042969 238.0625 195.175781 237.828125 195.289062 C 237.589844 195.402344 237.34375 195.492188 237.089844 195.554688 C 236.835938 195.617188 236.578125 195.65625 236.316406 195.667969 C 236.054688 195.683594 235.792969 195.671875 235.535156 195.632812 C 235.273438 195.59375 235.019531 195.53125 234.773438 195.441406 C 234.527344 195.355469 234.289062 195.242188 234.066406 195.109375 C 233.839844 194.972656 233.628906 194.816406 233.4375 194.640625 C 233.242188 194.464844 233.066406 194.273438 232.910156 194.0625 C 232.753906 193.851562 232.617188 193.628906 232.507812 193.390625 C 232.394531 193.152344 232.304688 192.90625 232.242188 192.652344 C 232.179688 192.398438 232.140625 192.140625 232.125 191.878906 C 232.113281 191.617188 232.125 191.355469 232.164062 191.097656 C 232.203125 190.835938 232.265625 190.582031 232.355469 190.335938 C 232.441406 190.089844 232.554688 189.851562 232.6875 189.628906 C 232.824219 189.402344 232.980469 189.191406 233.15625 189 C 233.332031 188.804688 233.523438 188.628906 233.734375 188.472656 C 233.945312 188.316406 234.167969 188.183594 234.40625 188.070312 C 234.644531 187.957031 234.890625 187.867188 235.144531 187.804688 C 235.398438 187.742188 235.65625 187.703125 235.917969 187.691406 C 236.179688 187.675781 236.441406 187.6875 236.699219 187.726562 C 236.960938 187.765625 237.214844 187.828125 237.460938 187.917969 C 237.707031 188.003906 237.945312 188.117188 238.167969 188.25 C 238.394531 188.386719 238.601562 188.542969 238.796875 188.71875 C 238.992188 188.894531 239.167969 189.085938 239.324219 189.296875 C 239.480469 189.507812 239.613281 189.730469 239.726562 189.96875 C 239.839844 190.207031 239.925781 190.453125 239.992188 190.707031 Z M 239.992188 190.707031 " fill-opacity="1" fill-rule="nonzero"/></g></g></g><g clip-path="url(#2ff076b641)"><g clip-path="url(#bfd1e11130)"><g clip-path="url(#53a432e260)"><path fill="#7ed957" d="M 262.035156 185.167969 C 262.101562 185.425781 262.136719 185.683594 262.152344 185.945312 C 262.164062 186.207031 262.152344 186.46875 262.113281 186.726562 C 262.074219 186.984375 262.011719 187.238281 261.921875 187.484375 C 261.835938 187.734375 261.722656 187.96875 261.589844 188.195312 C 261.453125 188.417969 261.300781 188.628906 261.121094 188.824219 C 260.945312 189.019531 260.753906 189.195312 260.542969 189.351562 C 260.332031 189.507812 260.109375 189.640625 259.871094 189.753906 C 259.632812 189.867188 259.390625 189.953125 259.132812 190.015625 C 258.878906 190.082031 258.621094 190.121094 258.359375 190.132812 C 258.097656 190.144531 257.835938 190.132812 257.578125 190.09375 C 257.316406 190.054688 257.066406 189.992188 256.816406 189.90625 C 256.570312 189.816406 256.335938 189.707031 256.109375 189.570312 C 255.882812 189.4375 255.675781 189.28125 255.480469 189.105469 C 255.285156 188.929688 255.109375 188.734375 254.953125 188.523438 C 254.796875 188.3125 254.664062 188.089844 254.550781 187.851562 C 254.4375 187.617188 254.351562 187.371094 254.285156 187.117188 C 254.222656 186.863281 254.183594 186.601562 254.171875 186.339844 C 254.15625 186.078125 254.171875 185.820312 254.210938 185.558594 C 254.246094 185.300781 254.3125 185.046875 254.398438 184.800781 C 254.488281 184.550781 254.597656 184.316406 254.734375 184.089844 C 254.867188 183.867188 255.023438 183.65625 255.199219 183.460938 C 255.375 183.265625 255.570312 183.09375 255.78125 182.9375 C 255.988281 182.777344 256.214844 182.644531 256.449219 182.53125 C 256.6875 182.421875 256.933594 182.332031 257.1875 182.269531 C 257.441406 182.203125 257.699219 182.164062 257.960938 182.152344 C 258.222656 182.140625 258.484375 182.152344 258.746094 182.191406 C 259.003906 182.230469 259.257812 182.292969 259.503906 182.378906 C 259.75 182.46875 259.988281 182.582031 260.210938 182.714844 C 260.4375 182.851562 260.648438 183.003906 260.84375 183.179688 C 261.035156 183.355469 261.210938 183.550781 261.367188 183.761719 C 261.523438 183.972656 261.660156 184.195312 261.769531 184.433594 C 261.882812 184.667969 261.972656 184.914062 262.035156 185.167969 Z M 262.035156 185.167969 " fill-opacity="1" fill-rule="nonzero"/></g></g></g><g fill="#000000" fill-opacity="1"><g transform="translate(126.343077, 188.472556)"><g><path d="M 7.40625 0 L 0.40625 -20.953125 L 6.765625 -20.953125 L 11.15625 -4.5625 L 11.765625 -4.5625 L 16.203125 -20.953125 L 22.3125 -20.953125 L 15.28125 0 Z M 7.40625 0 "/></g></g></g><g fill="#000000" fill-opacity="1"><g transform="translate(149.060822, 188.472556)"><g><path d="M 2.5625 0 L 2.5625 -21 L 8.3125 -21 L 8.3125 0 Z M 5.4375 -24.046875 C 4.3125 -24.046875 3.445312 -24.285156 2.84375 -24.765625 C 2.25 -25.242188 1.953125 -25.925781 1.953125 -26.8125 C 1.953125 -27.738281 2.25 -28.441406 2.84375 -28.921875 C 3.445312 -29.398438 4.3125 -29.640625 5.4375 -29.640625 C 6.582031 -29.640625 7.453125 -29.398438 8.046875 -28.921875 C 8.648438 -28.441406 8.953125 -27.738281 8.953125 -26.8125 C 8.953125 -25.925781 8.648438 -25.242188 8.046875 -24.765625 C 7.453125 -24.285156 6.582031 -24.046875 5.4375 -24.046875 Z M 5.4375 -24.046875 "/></g></g></g><g fill="#000000" fill-opacity="1"><g transform="translate(159.939746, 188.472556)"><g><path d="M 2.5625 0 L 2.5625 -21 L 7.359375 -21 L 7.3125 -13.71875 L 8.078125 -13.71875 C 8.296875 -15.53125 8.65625 -17.007812 9.15625 -18.15625 C 9.664062 -19.300781 10.378906 -20.140625 11.296875 -20.671875 C 12.222656 -21.210938 13.363281 -21.484375 14.71875 -21.484375 C 14.988281 -21.484375 15.269531 -21.46875 15.5625 -21.4375 C 15.851562 -21.414062 16.1875 -21.363281 16.5625 -21.28125 L 16.359375 -15.15625 C 15.910156 -15.34375 15.453125 -15.476562 14.984375 -15.5625 C 14.515625 -15.644531 14.082031 -15.6875 13.6875 -15.6875 C 12.664062 -15.6875 11.78125 -15.441406 11.03125 -14.953125 C 10.289062 -14.472656 9.695312 -13.78125 9.25 -12.875 C 8.8125 -11.96875 8.5 -10.847656 8.3125 -9.515625 L 8.3125 0 Z M 2.5625 0 "/></g></g></g><g fill="#000000" fill-opacity="1"><g transform="translate(176.778067, 188.472556)"><g><path d="M 7.515625 0.5625 C 6.347656 0.5625 5.3125 0.335938 4.40625 -0.109375 C 3.5 -0.566406 2.785156 -1.226562 2.265625 -2.09375 C 1.742188 -2.96875 1.484375 -4.03125 1.484375 -5.28125 C 1.484375 -6.75 1.804688 -7.910156 2.453125 -8.765625 C 3.109375 -9.617188 3.945312 -10.269531 4.96875 -10.71875 C 6 -11.175781 7.085938 -11.503906 8.234375 -11.703125 C 9.378906 -11.898438 10.445312 -12.066406 11.4375 -12.203125 C 12.34375 -12.335938 13.078125 -12.476562 13.640625 -12.625 C 14.203125 -12.769531 14.609375 -12.984375 14.859375 -13.265625 C 15.109375 -13.546875 15.234375 -13.925781 15.234375 -14.40625 C 15.234375 -14.9375 15.113281 -15.398438 14.875 -15.796875 C 14.632812 -16.203125 14.273438 -16.53125 13.796875 -16.78125 C 13.316406 -17.03125 12.691406 -17.15625 11.921875 -17.15625 C 11.171875 -17.15625 10.460938 -17.019531 9.796875 -16.75 C 9.128906 -16.488281 8.5625 -16.082031 8.09375 -15.53125 C 7.632812 -14.988281 7.320312 -14.304688 7.15625 -13.484375 L 2.046875 -14.921875 C 2.335938 -16.066406 2.78125 -17.050781 3.375 -17.875 C 3.976562 -18.707031 4.707031 -19.394531 5.5625 -19.9375 C 6.414062 -20.488281 7.375 -20.894531 8.4375 -21.15625 C 9.507812 -21.425781 10.671875 -21.5625 11.921875 -21.5625 C 13.546875 -21.5625 14.929688 -21.359375 16.078125 -20.953125 C 17.222656 -20.554688 18.148438 -19.953125 18.859375 -19.140625 C 19.566406 -18.328125 20.085938 -17.335938 20.421875 -16.171875 C 20.753906 -15.015625 20.921875 -13.691406 20.921875 -12.203125 L 20.921875 -8.59375 C 20.921875 -7.6875 20.929688 -6.742188 20.953125 -5.765625 C 20.984375 -4.796875 21.03125 -3.832031 21.09375 -2.875 C 21.164062 -1.914062 21.238281 -0.957031 21.3125 0 L 16.234375 0 C 16.160156 -0.71875 16.078125 -1.507812 15.984375 -2.375 C 15.890625 -3.25 15.828125 -4.140625 15.796875 -5.046875 L 15.125 -5.046875 C 14.75 -4.023438 14.210938 -3.082031 13.515625 -2.21875 C 12.828125 -1.351562 11.972656 -0.671875 10.953125 -0.171875 C 9.941406 0.316406 8.796875 0.5625 7.515625 0.5625 Z M 9.953125 -3.640625 C 10.460938 -3.640625 10.976562 -3.722656 11.5 -3.890625 C 12.019531 -4.066406 12.523438 -4.328125 13.015625 -4.671875 C 13.515625 -5.023438 13.96875 -5.46875 14.375 -6 C 14.789062 -6.53125 15.117188 -7.128906 15.359375 -7.796875 L 15.28125 -10.953125 L 16.203125 -10.796875 C 15.742188 -10.453125 15.203125 -10.179688 14.578125 -9.984375 C 13.953125 -9.785156 13.296875 -9.628906 12.609375 -9.515625 C 11.929688 -9.410156 11.257812 -9.289062 10.59375 -9.15625 C 9.925781 -9.019531 9.328125 -8.84375 8.796875 -8.625 C 8.265625 -8.414062 7.835938 -8.125 7.515625 -7.75 C 7.203125 -7.382812 7.046875 -6.878906 7.046875 -6.234375 C 7.046875 -5.441406 7.316406 -4.8125 7.859375 -4.34375 C 8.410156 -3.875 9.109375 -3.640625 9.953125 -3.640625 Z M 9.953125 -3.640625 "/></g></g></g><g fill="#000000" fill-opacity="1"><g transform="translate(200.015764, 188.472556)"><g><path d="M 2.5625 0 L 2.5625 -28.515625 L 8.234375 -28.515625 L 8.234375 0 Z M 2.5625 0 "/></g></g></g><g fill="#000000" fill-opacity="1"><g transform="translate(167.657981, 205.09755)"><g><path d="M 5.453125 0 L 3.703125 0 L 0.421875 -8.625 L 1.796875 -8.625 L 4.515625 -1.453125 L 4.6875 -1.453125 L 7.375 -8.625 L 8.71875 -8.625 Z M 5.453125 0 "/></g></g></g><g fill="#000000" fill-opacity="1"><g transform="translate(189.424506, 205.09755)"><g><path d="M 3.5625 0.171875 C 2.707031 0.171875 2.039062 -0.0507812 1.5625 -0.5 C 1.09375 -0.945312 0.859375 -1.582031 0.859375 -2.40625 C 0.859375 -2.914062 0.960938 -3.34375 1.171875 -3.6875 C 1.378906 -4.039062 1.703125 -4.328125 2.140625 -4.546875 C 2.585938 -4.773438 3.171875 -4.945312 3.890625 -5.0625 C 4.515625 -5.164062 4.988281 -5.28125 5.3125 -5.40625 C 5.632812 -5.539062 5.851562 -5.6875 5.96875 -5.84375 C 6.082031 -6.007812 6.140625 -6.21875 6.140625 -6.46875 C 6.140625 -6.851562 6.003906 -7.148438 5.734375 -7.359375 C 5.460938 -7.566406 5.03125 -7.671875 4.4375 -7.671875 C 3.882812 -7.671875 3.40625 -7.5625 3 -7.34375 C 2.601562 -7.132812 2.238281 -6.816406 1.90625 -6.390625 L 1.75 -6.390625 L 1.125 -7.265625 C 1.488281 -7.734375 1.953125 -8.101562 2.515625 -8.375 C 3.078125 -8.644531 3.71875 -8.78125 4.4375 -8.78125 C 5.457031 -8.78125 6.207031 -8.554688 6.6875 -8.109375 C 7.164062 -7.671875 7.40625 -7.054688 7.40625 -6.265625 L 7.40625 -1.703125 C 7.40625 -1.222656 7.609375 -0.984375 8.015625 -0.984375 C 8.148438 -0.984375 8.28125 -1.003906 8.40625 -1.046875 L 8.515625 -1.015625 L 8.671875 -0.140625 C 8.578125 -0.078125 8.453125 -0.03125 8.296875 0 C 8.140625 0.0390625 7.984375 0.0625 7.828125 0.0625 C 7.347656 0.0625 6.988281 -0.0390625 6.75 -0.25 C 6.507812 -0.457031 6.351562 -0.765625 6.28125 -1.171875 L 6.125 -1.1875 C 5.875 -0.738281 5.539062 -0.398438 5.125 -0.171875 C 4.707031 0.0546875 4.1875 0.171875 3.5625 0.171875 Z M 3.84375 -0.859375 C 4.320312 -0.859375 4.734375 -0.96875 5.078125 -1.1875 C 5.429688 -1.40625 5.703125 -1.710938 5.890625 -2.109375 C 6.078125 -2.515625 6.171875 -2.984375 6.171875 -3.515625 L 6.171875 -4.609375 L 6.03125 -4.640625 C 5.832031 -4.503906 5.59375 -4.390625 5.3125 -4.296875 C 5.039062 -4.203125 4.660156 -4.117188 4.171875 -4.046875 C 3.671875 -3.984375 3.269531 -3.878906 2.96875 -3.734375 C 2.675781 -3.597656 2.46875 -3.421875 2.34375 -3.203125 C 2.21875 -2.984375 2.15625 -2.71875 2.15625 -2.40625 C 2.15625 -1.894531 2.300781 -1.507812 2.59375 -1.25 C 2.894531 -0.988281 3.3125 -0.859375 3.84375 -0.859375 Z M 3.84375 -0.859375 "/></g></g></g><g fill="#000000" fill-opacity="1"><g transform="translate(211.136373, 205.09755)"><g><path d="M 3.9375 0.171875 C 3.394531 0.171875 2.890625 0.0976562 2.421875 -0.046875 C 1.960938 -0.191406 1.570312 -0.390625 1.25 -0.640625 C 0.9375 -0.890625 0.71875 -1.171875 0.59375 -1.484375 L 1.34375 -2.265625 L 1.5 -2.265625 C 1.78125 -1.835938 2.117188 -1.515625 2.515625 -1.296875 C 2.910156 -1.085938 3.382812 -0.984375 3.9375 -0.984375 C 4.570312 -0.984375 5.050781 -1.101562 5.375 -1.34375 C 5.707031 -1.59375 5.875 -1.941406 5.875 -2.390625 C 5.875 -2.722656 5.773438 -3 5.578125 -3.21875 C 5.378906 -3.445312 5.054688 -3.613281 4.609375 -3.71875 L 3.15625 -4.078125 C 2.375 -4.265625 1.804688 -4.5625 1.453125 -4.96875 C 1.097656 -5.375 0.921875 -5.878906 0.921875 -6.484375 C 0.921875 -6.953125 1.039062 -7.359375 1.28125 -7.703125 C 1.519531 -8.046875 1.863281 -8.3125 2.3125 -8.5 C 2.757812 -8.6875 3.296875 -8.78125 3.921875 -8.78125 C 4.710938 -8.78125 5.332031 -8.671875 5.78125 -8.453125 C 6.238281 -8.234375 6.597656 -7.925781 6.859375 -7.53125 L 6.140625 -6.828125 L 5.984375 -6.828125 C 5.703125 -7.140625 5.398438 -7.363281 5.078125 -7.5 C 4.753906 -7.644531 4.367188 -7.71875 3.921875 -7.71875 C 3.347656 -7.71875 2.910156 -7.613281 2.609375 -7.40625 C 2.304688 -7.207031 2.15625 -6.914062 2.15625 -6.53125 C 2.15625 -6.1875 2.257812 -5.90625 2.46875 -5.6875 C 2.6875 -5.476562 3.0625 -5.304688 3.59375 -5.171875 L 5.03125 -4.828125 C 5.78125 -4.648438 6.320312 -4.351562 6.65625 -3.9375 C 6.988281 -3.53125 7.15625 -3.019531 7.15625 -2.40625 C 7.15625 -1.894531 7.035156 -1.445312 6.796875 -1.0625 C 6.554688 -0.675781 6.191406 -0.375 5.703125 -0.15625 C 5.222656 0.0625 4.632812 0.171875 3.9375 0.171875 Z M 3.9375 0.171875 "/></g></g></g><g fill="#000000" fill-opacity="1"><g transform="translate(231.903152, 205.09755)"><g><path d="M 5.828125 -1.375 L 6.234375 -0.453125 C 6.035156 -0.253906 5.769531 -0.101562 5.4375 0 C 5.101562 0.113281 4.742188 0.171875 4.359375 0.171875 C 2.710938 0.171875 1.890625 -0.664062 1.890625 -2.34375 L 1.890625 -7.578125 L 0.390625 -7.578125 L 0.390625 -8.625 L 1.890625 -8.625 L 1.890625 -10.453125 L 3.171875 -10.65625 L 3.171875 -8.625 L 5.9375 -8.625 L 5.9375 -7.578125 L 3.171875 -7.578125 L 3.171875 -2.46875 C 3.171875 -1.476562 3.597656 -0.984375 4.453125 -0.984375 C 4.921875 -0.984375 5.328125 -1.113281 5.671875 -1.375 Z M 5.828125 -1.375 "/></g></g></g><g fill="#000000" fill-opacity="1"><g transform="translate(251.264025, 205.09755)"><g><path d="M 4.265625 0.171875 C 3.285156 0.171875 2.554688 -0.0859375 2.078125 -0.609375 C 1.609375 -1.128906 1.375 -1.882812 1.375 -2.875 L 1.375 -8.625 L 2.640625 -8.625 L 2.640625 -2.90625 C 2.640625 -1.601562 3.253906 -0.953125 4.484375 -0.953125 C 5.265625 -0.953125 5.878906 -1.207031 6.328125 -1.71875 C 6.785156 -2.226562 7.015625 -3.054688 7.015625 -4.203125 L 7.015625 -8.625 L 8.296875 -8.625 L 8.296875 0 L 7.09375 0 L 7.09375 -1.359375 L 6.921875 -1.390625 C 6.628906 -0.867188 6.273438 -0.476562 5.859375 -0.21875 C 5.441406 0.0390625 4.910156 0.171875 4.265625 0.171875 Z M 4.265625 0.171875 "/></g></g></g></svg>